#VRML V2.0 utf8
# Approximate mechanical envelope, NOT a manufacturer CAD model.
Transform { translation 14.271653543307087 0.0 0.39370078740157477 children [ Shape { appearance Appearance { material Material { diffuseColor .07 .07 .08 } } geometry Box { size 30.299212598425193 8.259842519685039 0.7874015748031495 } } ] }
Transform { translation -0.5118110236220472 0.0 3.149606299212598 children [ Shape { appearance Appearance { material Material { diffuseColor .07 .07 .08 } } geometry Box { size 0.7874015748031495 8.259842519685039 6.299212598425196 } } ] }
Transform { translation 29.05511811023622 0.0 3.149606299212598 children [ Shape { appearance Appearance { material Material { diffuseColor .07 .07 .08 } } geometry Box { size 0.7874015748031495 8.259842519685039 6.299212598425196 } } ] }
Transform { translation 14.271653543307087 -3.8976377952755907 1.968503937007874 children [ Shape { appearance Appearance { material Material { diffuseColor .07 .07 .08 } } geometry Box { size 28.74015748031496 0.47244094488188976 3.149606299212598 } } ] }
Transform { translation 14.271653543307087 3.8976377952755907 1.968503937007874 children [ Shape { appearance Appearance { material Material { diffuseColor .07 .07 .08 } } geometry Box { size 28.74015748031496 0.47244094488188976 3.149606299212598 } } ] }
Shape { appearance Appearance { material Material { diffuseColor .18 .38 .56 } } geometry IndexedFaceSet { solid FALSE coord Coordinate { point [ 1.4763779527559056 3.543307086614173 4.330708661417323, 1.4763779527559056 3.5129936032930287 4.793203043299395, 1.4763779527559056 3.4225718254337067 5.247784018079797, 1.4763779527559056 3.2735888947250316 5.686673579246381, 1.4763779527559056 3.0685939504173025 6.102362204724409, 1.4763779527559056 2.811094512842959 6.4877373468812936, 1.4763779527559056 2.5054964687712316 6.836205130188555, 1.4763779527559056 2.157028685463971 7.141803174260282, 1.4763779527559056 1.771653543307087 7.399302611834625, 1.4763779527559056 1.3559649178290585 7.604297556142355, 1.4763779527559056 0.9170753566624751 7.75328048685103, 1.4763779527559056 0.46249438188207304 7.843702264710352, 1.4763779527559056 2.1696498410090904e-16 7.874015748031496, 1.4763779527559056 -0.4624943818820726 7.843702264710352, 1.4763779527559056 -0.9170753566624747 7.75328048685103, 1.4763779527559056 -1.3559649178290574 7.604297556142355, 1.4763779527559056 -1.771653543307086 7.399302611834625, 1.4763779527559056 -2.157028685463971 7.141803174260282, 1.4763779527559056 -2.505496468771231 6.836205130188555, 1.4763779527559056 -2.811094512842959 6.4877373468812936, 1.4763779527559056 -3.0685939504173025 6.102362204724409, 1.4763779527559056 -3.2735888947250316 5.686673579246381, 1.4763779527559056 -3.422571825433706 5.247784018079799, 1.4763779527559056 -3.5129936032930287 4.793203043299396, 1.4763779527559056 -3.543307086614173 4.330708661417323, 1.4763779527559056 -3.5129936032930287 3.8682142795352497, 1.4763779527559056 -3.4225718254337067 3.4136333047548475, 1.4763779527559056 -3.273588894725032 2.9747437435882653, 1.4763779527559056 -3.068593950417303 2.5590551181102374, 1.4763779527559056 -2.811094512842959 2.1736799759533523, 1.4763779527559056 -2.505496468771233 1.825212192646093, 1.4763779527559056 -2.1570286854639718 1.5196141485743644, 1.4763779527559056 -1.771653543307088 1.2621147110000215, 1.4763779527559056 -1.3559649178290574 1.0571197666922907, 1.4763779527559056 -0.9170753566624747 0.908136835983616, 1.4763779527559056 -0.46249438188207265 0.817715058124294, 1.4763779527559056 -6.50894952302727e-16 0.7874015748031495, 1.4763779527559056 0.4624943818820714 0.8177150581242933, 1.4763779527559056 0.9170753566624735 0.908136835983616, 1.4763779527559056 1.355964917829056 1.0571197666922907, 1.4763779527559056 1.771653543307087 1.2621147110000208, 1.4763779527559056 2.1570286854639678 1.5196141485743615, 1.4763779527559056 2.5054964687712307 1.8252121926460907, 1.4763779527559056 2.8110945128429585 2.173679975953351, 1.4763779527559056 3.068593950417301 2.559055118110235, 1.4763779527559056 3.273588894725032 2.9747437435882653, 1.4763779527559056 3.422571825433706 3.4136333047548444, 1.4763779527559056 3.5129936032930287 3.8682142795352497, 27.066929133858267 3.543307086614173 4.330708661417323, 27.066929133858267 3.5129936032930287 4.793203043299395, 27.066929133858267 3.4225718254337067 5.247784018079797, 27.066929133858267 3.2735888947250316 5.686673579246381, 27.066929133858267 3.0685939504173025 6.102362204724409, 27.066929133858267 2.811094512842959 6.4877373468812936, 27.066929133858267 2.5054964687712316 6.836205130188555, 27.066929133858267 2.157028685463971 7.141803174260282, 27.066929133858267 1.771653543307087 7.399302611834625, 27.066929133858267 1.3559649178290585 7.604297556142355, 27.066929133858267 0.9170753566624751 7.75328048685103, 27.066929133858267 0.46249438188207304 7.843702264710352, 27.066929133858267 2.1696498410090904e-16 7.874015748031496, 27.066929133858267 -0.4624943818820726 7.843702264710352, 27.066929133858267 -0.9170753566624747 7.75328048685103, 27.066929133858267 -1.3559649178290574 7.604297556142355, 27.066929133858267 -1.771653543307086 7.399302611834625, 27.066929133858267 -2.157028685463971 7.141803174260282, 27.066929133858267 -2.505496468771231 6.836205130188555, 27.066929133858267 -2.811094512842959 6.4877373468812936, 27.066929133858267 -3.0685939504173025 6.102362204724409, 27.066929133858267 -3.2735888947250316 5.686673579246381, 27.066929133858267 -3.422571825433706 5.247784018079799, 27.066929133858267 -3.5129936032930287 4.793203043299396, 27.066929133858267 -3.543307086614173 4.330708661417323, 27.066929133858267 -3.5129936032930287 3.8682142795352497, 27.066929133858267 -3.4225718254337067 3.4136333047548475, 27.066929133858267 -3.273588894725032 2.9747437435882653, 27.066929133858267 -3.068593950417303 2.5590551181102374, 27.066929133858267 -2.811094512842959 2.1736799759533523, 27.066929133858267 -2.505496468771233 1.825212192646093, 27.066929133858267 -2.1570286854639718 1.5196141485743644, 27.066929133858267 -1.771653543307088 1.2621147110000215, 27.066929133858267 -1.3559649178290574 1.0571197666922907, 27.066929133858267 -0.9170753566624747 0.908136835983616, 27.066929133858267 -0.46249438188207265 0.817715058124294, 27.066929133858267 -6.50894952302727e-16 0.7874015748031495, 27.066929133858267 0.4624943818820714 0.8177150581242933, 27.066929133858267 0.9170753566624735 0.908136835983616, 27.066929133858267 1.355964917829056 1.0571197666922907, 27.066929133858267 1.771653543307087 1.2621147110000208, 27.066929133858267 2.1570286854639678 1.5196141485743615, 27.066929133858267 2.5054964687712307 1.8252121926460907, 27.066929133858267 2.8110945128429585 2.173679975953351, 27.066929133858267 3.068593950417301 2.559055118110235, 27.066929133858267 3.273588894725032 2.9747437435882653, 27.066929133858267 3.422571825433706 3.4136333047548444, 27.066929133858267 3.5129936032930287 3.8682142795352497 ] } coordIndex [ 0 1 49 48 -1, 1 2 50 49 -1, 2 3 51 50 -1, 3 4 52 51 -1, 4 5 53 52 -1, 5 6 54 53 -1, 6 7 55 54 -1, 7 8 56 55 -1, 8 9 57 56 -1, 9 10 58 57 -1, 10 11 59 58 -1, 11 12 60 59 -1, 12 13 61 60 -1, 13 14 62 61 -1, 14 15 63 62 -1, 15 16 64 63 -1, 16 17 65 64 -1, 17 18 66 65 -1, 18 19 67 66 -1, 19 20 68 67 -1, 20 21 69 68 -1, 21 22 70 69 -1, 22 23 71 70 -1, 23 24 72 71 -1, 24 25 73 72 -1, 25 26 74 73 -1, 26 27 75 74 -1, 27 28 76 75 -1, 28 29 77 76 -1, 29 30 78 77 -1, 30 31 79 78 -1, 31 32 80 79 -1, 32 33 81 80 -1, 33 34 82 81 -1, 34 35 83 82 -1, 35 36 84 83 -1, 36 37 85 84 -1, 37 38 86 85 -1, 38 39 87 86 -1, 39 40 88 87 -1, 40 41 89 88 -1, 41 42 90 89 -1, 42 43 91 90 -1, 43 44 92 91 -1, 44 45 93 92 -1, 45 46 94 93 -1, 46 47 95 94 -1, 47 0 48 95 -1, 47 46 45 44 43 42 41 40 39 38 37 36 35 34 33 32 31 30 29 28 27 26 25 24 23 22 21 20 19 18 17 16 15 14 13 12 11 10 9 8 7 6 5 4 3 2 1 0 -1, 48 49 50 51 52 53 54 55 56 57 58 59 60 61 62 63 64 65 66 67 68 69 70 71 72 73 74 75 76 77 78 79 80 81 82 83 84 85 86 87 88 89 90 91 92 93 94 95 -1 ] } }
