#VRML V2.0 utf8
# Approximate mechanical envelope, NOT a manufacturer CAD model.
Transform { translation 0.0 0.0 0.984251968503937 children [ Shape { appearance Appearance { material Material { diffuseColor .12 .12 .14 } } geometry Box { size 6.889763779527559 6.850393700787401 1.968503937007874 } } ] }
Shape { appearance Appearance { material Material { diffuseColor .15 .15 .17 } } geometry IndexedFaceSet { solid FALSE coord Coordinate { point [ 1.3779527559055118 0.0 1.968503937007874, 1.3661641790584003 0.17985892628747263 1.968503937007874, 1.3310001543353303 0.3566404164798514 1.968503937007874, 1.2730623479486234 0.527319690266856 1.968503937007874, 1.193342091828951 0.6889763779527558 1.968503937007874, 1.0932034216611508 0.8388444887915443 1.968503937007874, 0.9743597378554789 0.9743597378554787 1.968503937007874, 0.8388444887915443 1.0932034216611508 1.968503937007874, 0.6889763779527561 1.1933420918289508 1.968503937007874, 0.5273196902668561 1.2730623479486234 1.968503937007874, 0.3566404164798514 1.3310001543353303 1.968503937007874, 0.17985892628747283 1.3661641790584003 1.968503937007874, 8.437527159479795e-17 1.3779527559055118 1.968503937007874, -0.1798589262874727 1.3661641790584003 1.968503937007874, -0.35664041647985123 1.3310001543353303 1.968503937007874, -0.5273196902668555 1.2730623479486236 1.968503937007874, -0.6889763779527556 1.193342091828951 1.968503937007874, -0.8388444887915443 1.0932034216611508 1.968503937007874, -0.9743597378554787 0.9743597378554789 1.968503937007874, -1.0932034216611506 0.8388444887915444 1.968503937007874, -1.193342091828951 0.6889763779527558 1.968503937007874, -1.2730623479486234 0.5273196902668561 1.968503937007874, -1.3310001543353303 0.3566404164798518 1.968503937007874, -1.3661641790584003 0.17985892628747321 1.968503937007874, -1.3779527559055118 1.687505431895959e-16 1.968503937007874, -1.3661641790584003 -0.1798589262874729 1.968503937007874, -1.3310001543353303 -0.3566404164798515 1.968503937007874, -1.2730623479486236 -0.5273196902668559 1.968503937007874, -1.193342091828951 -0.6889763779527556 1.968503937007874, -1.0932034216611508 -0.8388444887915443 1.968503937007874, -0.9743597378554794 -0.9743597378554784 1.968503937007874, -0.8388444887915444 -1.0932034216611506 1.968503937007874, -0.6889763779527565 -1.1933420918289506 1.968503937007874, -0.5273196902668555 -1.2730623479486236 1.968503937007874, -0.35664041647985123 -1.3310001543353303 1.968503937007874, -0.17985892628747271 -1.3661641790584003 1.968503937007874, -2.5312581478439386e-16 -1.3779527559055118 1.968503937007874, 0.17985892628747221 -1.3661641790584003 1.968503937007874, 0.3566404164798508 -1.3310001543353305 1.968503937007874, 0.5273196902668551 -1.2730623479486238 1.968503937007874, 0.6889763779527561 -1.1933420918289508 1.968503937007874, 0.8388444887915432 -1.0932034216611515 1.968503937007874, 0.9743597378554787 -0.974359737855479 1.968503937007874, 1.0932034216611506 -0.8388444887915444 1.968503937007874, 1.1933420918289506 -0.6889763779527565 1.968503937007874, 1.2730623479486236 -0.5273196902668557 1.968503937007874, 1.33100015433533 -0.35664041647985256 1.968503937007874, 1.3661641790584003 -0.1798589262874728 1.968503937007874, 1.3779527559055118 0.0 3.543307086614173, 1.3661641790584003 0.17985892628747263 3.543307086614173, 1.3310001543353303 0.3566404164798514 3.543307086614173, 1.2730623479486234 0.527319690266856 3.543307086614173, 1.193342091828951 0.6889763779527558 3.543307086614173, 1.0932034216611508 0.8388444887915443 3.543307086614173, 0.9743597378554789 0.9743597378554787 3.543307086614173, 0.8388444887915443 1.0932034216611508 3.543307086614173, 0.6889763779527561 1.1933420918289508 3.543307086614173, 0.5273196902668561 1.2730623479486234 3.543307086614173, 0.3566404164798514 1.3310001543353303 3.543307086614173, 0.17985892628747283 1.3661641790584003 3.543307086614173, 8.437527159479795e-17 1.3779527559055118 3.543307086614173, -0.1798589262874727 1.3661641790584003 3.543307086614173, -0.35664041647985123 1.3310001543353303 3.543307086614173, -0.5273196902668555 1.2730623479486236 3.543307086614173, -0.6889763779527556 1.193342091828951 3.543307086614173, -0.8388444887915443 1.0932034216611508 3.543307086614173, -0.9743597378554787 0.9743597378554789 3.543307086614173, -1.0932034216611506 0.8388444887915444 3.543307086614173, -1.193342091828951 0.6889763779527558 3.543307086614173, -1.2730623479486234 0.5273196902668561 3.543307086614173, -1.3310001543353303 0.3566404164798518 3.543307086614173, -1.3661641790584003 0.17985892628747321 3.543307086614173, -1.3779527559055118 1.687505431895959e-16 3.543307086614173, -1.3661641790584003 -0.1798589262874729 3.543307086614173, -1.3310001543353303 -0.3566404164798515 3.543307086614173, -1.2730623479486236 -0.5273196902668559 3.543307086614173, -1.193342091828951 -0.6889763779527556 3.543307086614173, -1.0932034216611508 -0.8388444887915443 3.543307086614173, -0.9743597378554794 -0.9743597378554784 3.543307086614173, -0.8388444887915444 -1.0932034216611506 3.543307086614173, -0.6889763779527565 -1.1933420918289506 3.543307086614173, -0.5273196902668555 -1.2730623479486236 3.543307086614173, -0.35664041647985123 -1.3310001543353303 3.543307086614173, -0.17985892628747271 -1.3661641790584003 3.543307086614173, -2.5312581478439386e-16 -1.3779527559055118 3.543307086614173, 0.17985892628747221 -1.3661641790584003 3.543307086614173, 0.3566404164798508 -1.3310001543353305 3.543307086614173, 0.5273196902668551 -1.2730623479486238 3.543307086614173, 0.6889763779527561 -1.1933420918289508 3.543307086614173, 0.8388444887915432 -1.0932034216611515 3.543307086614173, 0.9743597378554787 -0.974359737855479 3.543307086614173, 1.0932034216611506 -0.8388444887915444 3.543307086614173, 1.1933420918289506 -0.6889763779527565 3.543307086614173, 1.2730623479486236 -0.5273196902668557 3.543307086614173, 1.33100015433533 -0.35664041647985256 3.543307086614173, 1.3661641790584003 -0.1798589262874728 3.543307086614173 ] } coordIndex [ 0 1 49 48 -1, 1 2 50 49 -1, 2 3 51 50 -1, 3 4 52 51 -1, 4 5 53 52 -1, 5 6 54 53 -1, 6 7 55 54 -1, 7 8 56 55 -1, 8 9 57 56 -1, 9 10 58 57 -1, 10 11 59 58 -1, 11 12 60 59 -1, 12 13 61 60 -1, 13 14 62 61 -1, 14 15 63 62 -1, 15 16 64 63 -1, 16 17 65 64 -1, 17 18 66 65 -1, 18 19 67 66 -1, 19 20 68 67 -1, 20 21 69 68 -1, 21 22 70 69 -1, 22 23 71 70 -1, 23 24 72 71 -1, 24 25 73 72 -1, 25 26 74 73 -1, 26 27 75 74 -1, 27 28 76 75 -1, 28 29 77 76 -1, 29 30 78 77 -1, 30 31 79 78 -1, 31 32 80 79 -1, 32 33 81 80 -1, 33 34 82 81 -1, 34 35 83 82 -1, 35 36 84 83 -1, 36 37 85 84 -1, 37 38 86 85 -1, 38 39 87 86 -1, 39 40 88 87 -1, 40 41 89 88 -1, 41 42 90 89 -1, 42 43 91 90 -1, 43 44 92 91 -1, 44 45 93 92 -1, 45 46 94 93 -1, 46 47 95 94 -1, 47 0 48 95 -1, 47 46 45 44 43 42 41 40 39 38 37 36 35 34 33 32 31 30 29 28 27 26 25 24 23 22 21 20 19 18 17 16 15 14 13 12 11 10 9 8 7 6 5 4 3 2 1 0 -1, 48 49 50 51 52 53 54 55 56 57 58 59 60 61 62 63 64 65 66 67 68 69 70 71 72 73 74 75 76 77 78 79 80 81 82 83 84 85 86 87 88 89 90 91 92 93 94 95 -1 ] } }
Shape { appearance Appearance { material Material { diffuseColor .05 .05 .06 } } geometry IndexedFaceSet { solid FALSE coord Coordinate { point [ 2.7559055118110236 0.0 3.543307086614173, 2.7323283581168005 0.35971785257494526 3.543307086614173, 2.6620003086706605 0.7132808329597028 3.543307086614173, 2.5461246958972468 1.054639380533712 3.543307086614173, 2.386684183657902 1.3779527559055116 3.543307086614173, 2.1864068433223016 1.6776889775830885 3.543307086614173, 1.9487194757109578 1.9487194757109574 3.543307086614173, 1.6776889775830885 2.1864068433223016 3.543307086614173, 1.3779527559055122 2.3866841836579016 3.543307086614173, 1.0546393805337122 2.5461246958972468 3.543307086614173, 0.7132808329597028 2.6620003086706605 3.543307086614173, 0.35971785257494565 2.7323283581168005 3.543307086614173, 1.687505431895959e-16 2.7559055118110236 3.543307086614173, -0.3597178525749454 2.7323283581168005 3.543307086614173, -0.7132808329597025 2.6620003086706605 3.543307086614173, -1.054639380533711 2.546124695897247 3.543307086614173, -1.3779527559055111 2.386684183657902 3.543307086614173, -1.6776889775830885 2.1864068433223016 3.543307086614173, -1.9487194757109574 1.9487194757109578 3.543307086614173, -2.186406843322301 1.6776889775830888 3.543307086614173, -2.386684183657902 1.3779527559055116 3.543307086614173, -2.5461246958972468 1.0546393805337122 3.543307086614173, -2.6620003086706605 0.7132808329597036 3.543307086614173, -2.7323283581168005 0.35971785257494643 3.543307086614173, -2.7559055118110236 3.375010863791918e-16 3.543307086614173, -2.7323283581168005 -0.3597178525749458 3.543307086614173, -2.6620003086706605 -0.713280832959703 3.543307086614173, -2.546124695897247 -1.0546393805337118 3.543307086614173, -2.386684183657902 -1.3779527559055111 3.543307086614173, -2.1864068433223016 -1.6776889775830885 3.543307086614173, -1.9487194757109587 -1.9487194757109567 3.543307086614173, -1.6776889775830888 -2.186406843322301 3.543307086614173, -1.377952755905513 -2.386684183657901 3.543307086614173, -1.054639380533711 -2.546124695897247 3.543307086614173, -0.7132808329597025 -2.6620003086706605 3.543307086614173, -0.35971785257494543 -2.7323283581168005 3.543307086614173, -5.062516295687877e-16 -2.7559055118110236 3.543307086614173, 0.35971785257494443 -2.7323283581168005 3.543307086614173, 0.7132808329597016 -2.662000308670661 3.543307086614173, 1.0546393805337102 -2.5461246958972477 3.543307086614173, 1.3779527559055122 -2.3866841836579016 3.543307086614173, 1.6776889775830863 -2.186406843322303 3.543307086614173, 1.9487194757109574 -1.948719475710958 3.543307086614173, 2.186406843322301 -1.6776889775830888 3.543307086614173, 2.386684183657901 -1.377952755905513 3.543307086614173, 2.546124695897247 -1.0546393805337113 3.543307086614173, 2.66200030867066 -0.7132808329597051 3.543307086614173, 2.7323283581168005 -0.3597178525749456 3.543307086614173, 2.7559055118110236 0.0 4.724409448818897, 2.7323283581168005 0.35971785257494526 4.724409448818897, 2.6620003086706605 0.7132808329597028 4.724409448818897, 2.5461246958972468 1.054639380533712 4.724409448818897, 2.386684183657902 1.3779527559055116 4.724409448818897, 2.1864068433223016 1.6776889775830885 4.724409448818897, 1.9487194757109578 1.9487194757109574 4.724409448818897, 1.6776889775830885 2.1864068433223016 4.724409448818897, 1.3779527559055122 2.3866841836579016 4.724409448818897, 1.0546393805337122 2.5461246958972468 4.724409448818897, 0.7132808329597028 2.6620003086706605 4.724409448818897, 0.35971785257494565 2.7323283581168005 4.724409448818897, 1.687505431895959e-16 2.7559055118110236 4.724409448818897, -0.3597178525749454 2.7323283581168005 4.724409448818897, -0.7132808329597025 2.6620003086706605 4.724409448818897, -1.054639380533711 2.546124695897247 4.724409448818897, -1.3779527559055111 2.386684183657902 4.724409448818897, -1.6776889775830885 2.1864068433223016 4.724409448818897, -1.9487194757109574 1.9487194757109578 4.724409448818897, -2.186406843322301 1.6776889775830888 4.724409448818897, -2.386684183657902 1.3779527559055116 4.724409448818897, -2.5461246958972468 1.0546393805337122 4.724409448818897, -2.6620003086706605 0.7132808329597036 4.724409448818897, -2.7323283581168005 0.35971785257494643 4.724409448818897, -2.7559055118110236 3.375010863791918e-16 4.724409448818897, -2.7323283581168005 -0.3597178525749458 4.724409448818897, -2.6620003086706605 -0.713280832959703 4.724409448818897, -2.546124695897247 -1.0546393805337118 4.724409448818897, -2.386684183657902 -1.3779527559055111 4.724409448818897, -2.1864068433223016 -1.6776889775830885 4.724409448818897, -1.9487194757109587 -1.9487194757109567 4.724409448818897, -1.6776889775830888 -2.186406843322301 4.724409448818897, -1.377952755905513 -2.386684183657901 4.724409448818897, -1.054639380533711 -2.546124695897247 4.724409448818897, -0.7132808329597025 -2.6620003086706605 4.724409448818897, -0.35971785257494543 -2.7323283581168005 4.724409448818897, -5.062516295687877e-16 -2.7559055118110236 4.724409448818897, 0.35971785257494443 -2.7323283581168005 4.724409448818897, 0.7132808329597016 -2.662000308670661 4.724409448818897, 1.0546393805337102 -2.5461246958972477 4.724409448818897, 1.3779527559055122 -2.3866841836579016 4.724409448818897, 1.6776889775830863 -2.186406843322303 4.724409448818897, 1.9487194757109574 -1.948719475710958 4.724409448818897, 2.186406843322301 -1.6776889775830888 4.724409448818897, 2.386684183657901 -1.377952755905513 4.724409448818897, 2.546124695897247 -1.0546393805337113 4.724409448818897, 2.66200030867066 -0.7132808329597051 4.724409448818897, 2.7323283581168005 -0.3597178525749456 4.724409448818897 ] } coordIndex [ 0 1 49 48 -1, 1 2 50 49 -1, 2 3 51 50 -1, 3 4 52 51 -1, 4 5 53 52 -1, 5 6 54 53 -1, 6 7 55 54 -1, 7 8 56 55 -1, 8 9 57 56 -1, 9 10 58 57 -1, 10 11 59 58 -1, 11 12 60 59 -1, 12 13 61 60 -1, 13 14 62 61 -1, 14 15 63 62 -1, 15 16 64 63 -1, 16 17 65 64 -1, 17 18 66 65 -1, 18 19 67 66 -1, 19 20 68 67 -1, 20 21 69 68 -1, 21 22 70 69 -1, 22 23 71 70 -1, 23 24 72 71 -1, 24 25 73 72 -1, 25 26 74 73 -1, 26 27 75 74 -1, 27 28 76 75 -1, 28 29 77 76 -1, 29 30 78 77 -1, 30 31 79 78 -1, 31 32 80 79 -1, 32 33 81 80 -1, 33 34 82 81 -1, 34 35 83 82 -1, 35 36 84 83 -1, 36 37 85 84 -1, 37 38 86 85 -1, 38 39 87 86 -1, 39 40 88 87 -1, 40 41 89 88 -1, 41 42 90 89 -1, 42 43 91 90 -1, 43 44 92 91 -1, 44 45 93 92 -1, 45 46 94 93 -1, 46 47 95 94 -1, 47 0 48 95 -1, 47 46 45 44 43 42 41 40 39 38 37 36 35 34 33 32 31 30 29 28 27 26 25 24 23 22 21 20 19 18 17 16 15 14 13 12 11 10 9 8 7 6 5 4 3 2 1 0 -1, 48 49 50 51 52 53 54 55 56 57 58 59 60 61 62 63 64 65 66 67 68 69 70 71 72 73 74 75 76 77 78 79 80 81 82 83 84 85 86 87 88 89 90 91 92 93 94 95 -1 ] } }
