#VRML V2.0 utf8
# Approximate mechanical envelope, NOT a manufacturer CAD model.
Transform { translation 1.5 -4.881889763779528 3.937007874015748 children [ Shape { appearance Appearance { material Material { diffuseColor .05 .12 .17 } } geometry Box { size 10.748031496062993 10.94488188976378 0.6299212598425197 } } ] }
Transform { translation 1.5 -4.488188976377953 4.330708661417323 children [ Shape { appearance Appearance { material Material { diffuseColor .01 .015 .025 } } geometry Box { size 8.560629921259842 4.277165354330709 0.23622047244094488 } } ] }
Transform { translation 0.0 0.0 2.7559055118110236 children [ Shape { appearance Appearance { material Material { diffuseColor .7 .65 .35 } } geometry Box { size 0.25196850393700787 0.25196850393700787 2.7559055118110236 } } ] }
Transform { translation 1.0 0.0 2.7559055118110236 children [ Shape { appearance Appearance { material Material { diffuseColor .7 .65 .35 } } geometry Box { size 0.25196850393700787 0.25196850393700787 2.7559055118110236 } } ] }
Transform { translation 2.0 0.0 2.7559055118110236 children [ Shape { appearance Appearance { material Material { diffuseColor .7 .65 .35 } } geometry Box { size 0.25196850393700787 0.25196850393700787 2.7559055118110236 } } ] }
Transform { translation 3.0 0.0 2.7559055118110236 children [ Shape { appearance Appearance { material Material { diffuseColor .7 .65 .35 } } geometry Box { size 0.25196850393700787 0.25196850393700787 2.7559055118110236 } } ] }
Shape { appearance Appearance { material Material { diffuseColor .8 .8 .75 } } geometry IndexedFaceSet { solid FALSE coord Coordinate { point [ -2.417322834645669 -9.566929133858268 0.0, -2.423048714828552 -9.47956908394721 0.0, -2.4401283839797574 -9.39370378871091 0.0, -2.468269604224729 -9.310802427157224 0.0, -2.506990871482856 -9.23228346456693 0.0, -2.5556296541357875 -9.159490382159518 0.0, -2.613353729127114 -9.093668689757035 0.0, -2.6791754215295964 -9.03594461476571 0.0, -2.7519685039370074 -8.987305832112778 0.0, -2.8304874665273023 -8.94858456485465 0.0, -2.9133888280809903 -8.92044334460968 0.0, -2.999254123317288 -8.903363675458474 0.0, -3.0866141732283463 -8.89763779527559 0.0, -3.1739742231394046 -8.903363675458474 0.0, -3.2598395183757027 -8.92044334460968 0.0, -3.3427408799293903 -8.94858456485465 0.0, -3.4212598425196847 -8.987305832112778 0.0, -3.494052924927096 -9.03594461476571 0.0, -3.5598746173295788 -9.093668689757035 0.0, -3.617598692320905 -9.159490382159518 0.0, -3.6662374749738365 -9.23228346456693 0.0, -3.7049587422319634 -9.310802427157224 0.0, -3.7330999624769348 -9.39370378871091 0.0, -3.750179631628141 -9.479569083947208 0.0, -3.755905511811023 -9.566929133858268 0.0, -3.750179631628141 -9.654289183769325 0.0, -3.7330999624769357 -9.740154479005625 0.0, -3.7049587422319634 -9.823055840559313 0.0, -3.6662374749738373 -9.901574803149606 0.0, -3.617598692320905 -9.974367885557017 0.0, -3.559874617329579 -10.040189577959499 0.0, -3.494052924927096 -10.097913652950826 0.0, -3.4212598425196856 -10.146552435603757 0.0, -3.3427408799293903 -10.185273702861886 0.0, -3.2598395183757027 -10.213414923106857 0.0, -3.1739742231394046 -10.230494592258063 0.0, -3.0866141732283463 -10.236220472440944 0.0, -2.9992541233172885 -10.230494592258063 0.0, -2.9133888280809903 -10.213414923106857 0.0, -2.8304874665273023 -10.185273702861886 0.0, -2.7519685039370074 -10.146552435603757 0.0, -2.679175421529597 -10.097913652950826 0.0, -2.613353729127114 -10.0401895779595 0.0, -2.5556296541357875 -9.974367885557017 0.0, -2.506990871482856 -9.901574803149607 0.0, -2.468269604224729 -9.823055840559313 0.0, -2.4401283839797574 -9.740154479005625 0.0, -2.423048714828552 -9.654289183769325 0.0, -2.417322834645669 -9.566929133858268 3.622047244094488, -2.423048714828552 -9.47956908394721 3.622047244094488, -2.4401283839797574 -9.39370378871091 3.622047244094488, -2.468269604224729 -9.310802427157224 3.622047244094488, -2.506990871482856 -9.23228346456693 3.622047244094488, -2.5556296541357875 -9.159490382159518 3.622047244094488, -2.613353729127114 -9.093668689757035 3.622047244094488, -2.6791754215295964 -9.03594461476571 3.622047244094488, -2.7519685039370074 -8.987305832112778 3.622047244094488, -2.8304874665273023 -8.94858456485465 3.622047244094488, -2.9133888280809903 -8.92044334460968 3.622047244094488, -2.999254123317288 -8.903363675458474 3.622047244094488, -3.0866141732283463 -8.89763779527559 3.622047244094488, -3.1739742231394046 -8.903363675458474 3.622047244094488, -3.2598395183757027 -8.92044334460968 3.622047244094488, -3.3427408799293903 -8.94858456485465 3.622047244094488, -3.4212598425196847 -8.987305832112778 3.622047244094488, -3.494052924927096 -9.03594461476571 3.622047244094488, -3.5598746173295788 -9.093668689757035 3.622047244094488, -3.617598692320905 -9.159490382159518 3.622047244094488, -3.6662374749738365 -9.23228346456693 3.622047244094488, -3.7049587422319634 -9.310802427157224 3.622047244094488, -3.7330999624769348 -9.39370378871091 3.622047244094488, -3.750179631628141 -9.479569083947208 3.622047244094488, -3.755905511811023 -9.566929133858268 3.622047244094488, -3.750179631628141 -9.654289183769325 3.622047244094488, -3.7330999624769357 -9.740154479005625 3.622047244094488, -3.7049587422319634 -9.823055840559313 3.622047244094488, -3.6662374749738373 -9.901574803149606 3.622047244094488, -3.617598692320905 -9.974367885557017 3.622047244094488, -3.559874617329579 -10.040189577959499 3.622047244094488, -3.494052924927096 -10.097913652950826 3.622047244094488, -3.4212598425196856 -10.146552435603757 3.622047244094488, -3.3427408799293903 -10.185273702861886 3.622047244094488, -3.2598395183757027 -10.213414923106857 3.622047244094488, -3.1739742231394046 -10.230494592258063 3.622047244094488, -3.0866141732283463 -10.236220472440944 3.622047244094488, -2.9992541233172885 -10.230494592258063 3.622047244094488, -2.9133888280809903 -10.213414923106857 3.622047244094488, -2.8304874665273023 -10.185273702861886 3.622047244094488, -2.7519685039370074 -10.146552435603757 3.622047244094488, -2.679175421529597 -10.097913652950826 3.622047244094488, -2.613353729127114 -10.0401895779595 3.622047244094488, -2.5556296541357875 -9.974367885557017 3.622047244094488, -2.506990871482856 -9.901574803149607 3.622047244094488, -2.468269604224729 -9.823055840559313 3.622047244094488, -2.4401283839797574 -9.740154479005625 3.622047244094488, -2.423048714828552 -9.654289183769325 3.622047244094488 ] } coordIndex [ 0 1 49 48 -1, 1 2 50 49 -1, 2 3 51 50 -1, 3 4 52 51 -1, 4 5 53 52 -1, 5 6 54 53 -1, 6 7 55 54 -1, 7 8 56 55 -1, 8 9 57 56 -1, 9 10 58 57 -1, 10 11 59 58 -1, 11 12 60 59 -1, 12 13 61 60 -1, 13 14 62 61 -1, 14 15 63 62 -1, 15 16 64 63 -1, 16 17 65 64 -1, 17 18 66 65 -1, 18 19 67 66 -1, 19 20 68 67 -1, 20 21 69 68 -1, 21 22 70 69 -1, 22 23 71 70 -1, 23 24 72 71 -1, 24 25 73 72 -1, 25 26 74 73 -1, 26 27 75 74 -1, 27 28 76 75 -1, 28 29 77 76 -1, 29 30 78 77 -1, 30 31 79 78 -1, 31 32 80 79 -1, 32 33 81 80 -1, 33 34 82 81 -1, 34 35 83 82 -1, 35 36 84 83 -1, 36 37 85 84 -1, 37 38 86 85 -1, 38 39 87 86 -1, 39 40 88 87 -1, 40 41 89 88 -1, 41 42 90 89 -1, 42 43 91 90 -1, 43 44 92 91 -1, 44 45 93 92 -1, 45 46 94 93 -1, 46 47 95 94 -1, 47 0 48 95 -1, 47 46 45 44 43 42 41 40 39 38 37 36 35 34 33 32 31 30 29 28 27 26 25 24 23 22 21 20 19 18 17 16 15 14 13 12 11 10 9 8 7 6 5 4 3 2 1 0 -1, 48 49 50 51 52 53 54 55 56 57 58 59 60 61 62 63 64 65 66 67 68 69 70 71 72 73 74 75 76 77 78 79 80 81 82 83 84 85 86 87 88 89 90 91 92 93 94 95 -1 ] } }
Shape { appearance Appearance { material Material { diffuseColor .8 .8 .75 } } geometry IndexedFaceSet { solid FALSE coord Coordinate { point [ 6.755905511811023 -9.566929133858268 0.0, 6.750179631628141 -9.47956908394721 0.0, 6.733099962476936 -9.39370378871091 0.0, 6.704958742231963 -9.310802427157224 0.0, 6.666237474973837 -9.23228346456693 0.0, 6.617598692320906 -9.159490382159518 0.0, 6.55987461732958 -9.093668689757035 0.0, 6.494052924927097 -9.03594461476571 0.0, 6.421259842519686 -8.987305832112778 0.0, 6.342740879929392 -8.94858456485465 0.0, 6.259839518375703 -8.92044334460968 0.0, 6.173974223139405 -8.903363675458474 0.0, 6.086614173228346 -8.89763779527559 0.0, 5.9992541233172885 -8.903363675458474 0.0, 5.913388828080991 -8.92044334460968 0.0, 5.830487466527303 -8.94858456485465 0.0, 5.751968503937008 -8.987305832112778 0.0, 5.679175421529597 -9.03594461476571 0.0, 5.613353729127114 -9.093668689757035 0.0, 5.555629654135788 -9.159490382159518 0.0, 5.506990871482857 -9.23228346456693 0.0, 5.46826960422473 -9.310802427157224 0.0, 5.440128383979758 -9.39370378871091 0.0, 5.423048714828552 -9.479569083947208 0.0, 5.417322834645669 -9.566929133858268 0.0, 5.423048714828552 -9.654289183769325 0.0, 5.440128383979758 -9.740154479005625 0.0, 5.46826960422473 -9.823055840559313 0.0, 5.506990871482856 -9.901574803149606 0.0, 5.555629654135788 -9.974367885557017 0.0, 5.613353729127113 -10.040189577959499 0.0, 5.679175421529597 -10.097913652950826 0.0, 5.751968503937007 -10.146552435603757 0.0, 5.830487466527303 -10.185273702861886 0.0, 5.913388828080991 -10.213414923106857 0.0, 5.9992541233172885 -10.230494592258063 0.0, 6.086614173228346 -10.236220472440944 0.0, 6.173974223139404 -10.230494592258063 0.0, 6.259839518375703 -10.213414923106857 0.0, 6.342740879929392 -10.185273702861886 0.0, 6.421259842519686 -10.146552435603757 0.0, 6.494052924927097 -10.097913652950826 0.0, 6.55987461732958 -10.0401895779595 0.0, 6.617598692320906 -9.974367885557017 0.0, 6.666237474973837 -9.901574803149607 0.0, 6.704958742231964 -9.823055840559313 0.0, 6.733099962476936 -9.740154479005625 0.0, 6.750179631628141 -9.654289183769325 0.0, 6.755905511811023 -9.566929133858268 3.622047244094488, 6.750179631628141 -9.47956908394721 3.622047244094488, 6.733099962476936 -9.39370378871091 3.622047244094488, 6.704958742231963 -9.310802427157224 3.622047244094488, 6.666237474973837 -9.23228346456693 3.622047244094488, 6.617598692320906 -9.159490382159518 3.622047244094488, 6.55987461732958 -9.093668689757035 3.622047244094488, 6.494052924927097 -9.03594461476571 3.622047244094488, 6.421259842519686 -8.987305832112778 3.622047244094488, 6.342740879929392 -8.94858456485465 3.622047244094488, 6.259839518375703 -8.92044334460968 3.622047244094488, 6.173974223139405 -8.903363675458474 3.622047244094488, 6.086614173228346 -8.89763779527559 3.622047244094488, 5.9992541233172885 -8.903363675458474 3.622047244094488, 5.913388828080991 -8.92044334460968 3.622047244094488, 5.830487466527303 -8.94858456485465 3.622047244094488, 5.751968503937008 -8.987305832112778 3.622047244094488, 5.679175421529597 -9.03594461476571 3.622047244094488, 5.613353729127114 -9.093668689757035 3.622047244094488, 5.555629654135788 -9.159490382159518 3.622047244094488, 5.506990871482857 -9.23228346456693 3.622047244094488, 5.46826960422473 -9.310802427157224 3.622047244094488, 5.440128383979758 -9.39370378871091 3.622047244094488, 5.423048714828552 -9.479569083947208 3.622047244094488, 5.417322834645669 -9.566929133858268 3.622047244094488, 5.423048714828552 -9.654289183769325 3.622047244094488, 5.440128383979758 -9.740154479005625 3.622047244094488, 5.46826960422473 -9.823055840559313 3.622047244094488, 5.506990871482856 -9.901574803149606 3.622047244094488, 5.555629654135788 -9.974367885557017 3.622047244094488, 5.613353729127113 -10.040189577959499 3.622047244094488, 5.679175421529597 -10.097913652950826 3.622047244094488, 5.751968503937007 -10.146552435603757 3.622047244094488, 5.830487466527303 -10.185273702861886 3.622047244094488, 5.913388828080991 -10.213414923106857 3.622047244094488, 5.9992541233172885 -10.230494592258063 3.622047244094488, 6.086614173228346 -10.236220472440944 3.622047244094488, 6.173974223139404 -10.230494592258063 3.622047244094488, 6.259839518375703 -10.213414923106857 3.622047244094488, 6.342740879929392 -10.185273702861886 3.622047244094488, 6.421259842519686 -10.146552435603757 3.622047244094488, 6.494052924927097 -10.097913652950826 3.622047244094488, 6.55987461732958 -10.0401895779595 3.622047244094488, 6.617598692320906 -9.974367885557017 3.622047244094488, 6.666237474973837 -9.901574803149607 3.622047244094488, 6.704958742231964 -9.823055840559313 3.622047244094488, 6.733099962476936 -9.740154479005625 3.622047244094488, 6.750179631628141 -9.654289183769325 3.622047244094488 ] } coordIndex [ 0 1 49 48 -1, 1 2 50 49 -1, 2 3 51 50 -1, 3 4 52 51 -1, 4 5 53 52 -1, 5 6 54 53 -1, 6 7 55 54 -1, 7 8 56 55 -1, 8 9 57 56 -1, 9 10 58 57 -1, 10 11 59 58 -1, 11 12 60 59 -1, 12 13 61 60 -1, 13 14 62 61 -1, 14 15 63 62 -1, 15 16 64 63 -1, 16 17 65 64 -1, 17 18 66 65 -1, 18 19 67 66 -1, 19 20 68 67 -1, 20 21 69 68 -1, 21 22 70 69 -1, 22 23 71 70 -1, 23 24 72 71 -1, 24 25 73 72 -1, 25 26 74 73 -1, 26 27 75 74 -1, 27 28 76 75 -1, 28 29 77 76 -1, 29 30 78 77 -1, 30 31 79 78 -1, 31 32 80 79 -1, 32 33 81 80 -1, 33 34 82 81 -1, 34 35 83 82 -1, 35 36 84 83 -1, 36 37 85 84 -1, 37 38 86 85 -1, 38 39 87 86 -1, 39 40 88 87 -1, 40 41 89 88 -1, 41 42 90 89 -1, 42 43 91 90 -1, 43 44 92 91 -1, 44 45 93 92 -1, 45 46 94 93 -1, 46 47 95 94 -1, 47 0 48 95 -1, 47 46 45 44 43 42 41 40 39 38 37 36 35 34 33 32 31 30 29 28 27 26 25 24 23 22 21 20 19 18 17 16 15 14 13 12 11 10 9 8 7 6 5 4 3 2 1 0 -1, 48 49 50 51 52 53 54 55 56 57 58 59 60 61 62 63 64 65 66 67 68 69 70 71 72 73 74 75 76 77 78 79 80 81 82 83 84 85 86 87 88 89 90 91 92 93 94 95 -1 ] } }
